<?xml version="1.0" encoding="UTF-8"?>
<svg id="Layer_1" data-name="Layer 1" xmlns="http://www.w3.org/2000/svg" viewBox="0 0 64 64">
  <defs>
    <style>
      .cls-1 {
        opacity: .99;
      }
    </style>
  </defs>
  <path class="cls-1" d="M4.4,18.59v3.26c0,1.17.62,2.21,1.56,2.78.49.31,1.08.48,1.71.48h10.14c3.59,0,6.77,2.67,7.06,6.25.02.21.03.42.03.64s0,.43-.03.64c-.29,3.58-3.46,6.24-7.06,6.24h-6.87c-1.6,0-2.92,1.14-3.21,2.65-.03.2-.06.4-.06.61v3.27s9.5,0,9.5,0c4.9,0,9.18-2.62,11.52-6.53,1.21-2.01,1.89-4.36,1.89-6.88,0-2.52-.69-4.87-1.89-6.89-2.35-3.91-6.63-6.53-11.52-6.53H4.4Z"/>
  <path d="M9.29,29.77h12.94v2.26c0,1.25-1.01,2.26-2.26,2.26h-8.41c-1.25,0-2.26-1.01-2.26-2.26v-2.26h0Z"/>
  <path class="cls-1" d="M59.6,18.59v3.26c0,1.17-.62,2.21-1.56,2.78-.49.31-1.08.48-1.71.48h-10.14c-3.59,0-6.77,2.67-7.06,6.25-.02.21-.03.42-.03.64,0,.21,0,.43.03.64.29,3.58,3.46,6.24,7.06,6.24h6.87c1.6,0,2.92,1.14,3.21,2.65.03.2.06.4.06.61v3.27s-9.5,0-9.5,0c-4.9,0-9.18-2.62-11.52-6.53-1.21-2.01-1.89-4.36-1.89-6.88s.69-4.87,1.89-6.89c2.35-3.91,6.63-6.53,11.52-6.53h12.77Z"/>
  <path d="M44.03,29.77h8.41c1.25,0,2.26,1.01,2.26,2.26v2.26h-12.94v-2.26c0-1.25,1.01-2.26,2.26-2.26Z" transform="translate(96.48 64.07) rotate(-180)"/>
  <path d="M39.41,18.94c-4.1,3.37-6.84,8.23-7.33,13.72,0,.11-.15.11-.16,0-.49-5.48-3.23-10.34-7.33-13.72-.08-.07,0-.19.09-.14,2.2,1.11,4.68,1.73,7.31,1.73s5.11-.62,7.31-1.73c.1-.05.18.08.09.14Z"/>
</svg>