<?xml version="1.0" encoding="UTF-8"?>
<svg id="Layer_1" data-name="Layer 1" xmlns="http://www.w3.org/2000/svg" xmlns:xlink="http://www.w3.org/1999/xlink" viewBox="0 0 1024 768">
  <defs>
    <style>
      .cls-1 {
        fill: url(#linear-gradient);
      }
    </style>
    <linearGradient id="linear-gradient" x1="512" y1="229.87" x2="512" y2="570.28" gradientUnits="userSpaceOnUse">
      <stop offset="0" stop-color="#3a41c6"/>
      <stop offset=".27" stop-color="#3d3bbb"/>
      <stop offset=".51" stop-color="#4634a7"/>
      <stop offset=".76" stop-color="#4c2c96"/>
      <stop offset="1" stop-color="#512888"/>
    </linearGradient>
  </defs>
  <path class="cls-1" d="M360.5,247c49.99,0,93.71,26.71,117.66,66.66,12.31,20.6,19.34,44.63,19.34,70.34,0,25.71-7.03,49.74-19.34,70.26-23.95,39.94-67.66,66.74-117.66,66.74h-96.62c-.24,0-.43-.19-.43-.43v-32.98c0-2.18.25-4.27.59-6.28,3.01-15.41,16.5-27.05,32.83-27.05h71.07c37.54,0,69.58-28.96,71.37-66.45.06-1.26.09-2.53.09-3.81s-.03-2.56-.09-3.83c-1.79-37.53-33.85-66.51-71.42-66.51h-104.43c-6.36,0-12.39-1.76-17.42-4.94-9.55-5.86-15.91-16.41-15.91-28.39v-32.9c0-.24.19-.43.43-.43h129.95ZM412.21,379.91v-18.5c0-.08-.07-.15-.15-.15h-131.81c-.08,0-.15.07-.15.15v18.5c0,15.21,12.33,27.54,27.54,27.54h77.05c15.2,0,27.53-12.33,27.53-27.53ZM663.5,247c-49.99,0-93.71,26.71-117.66,66.66-12.31,20.6-19.34,44.63-19.34,70.34s7.03,49.74,19.34,70.26c23.95,39.94,67.66,66.74,117.66,66.74h96.62c.24,0,.43-.19.43-.43v-32.98c0-2.18-.25-4.27-.59-6.28-3.01-15.41-16.5-27.05-32.83-27.05h-71.07c-37.54,0-69.58-28.96-71.37-66.45-.06-1.26-.09-2.53-.09-3.81,0-1.29.03-2.56.09-3.83,1.79-37.53,33.85-66.51,71.42-66.51h104.43c6.36,0,12.39-1.76,17.42-4.94,9.55-5.86,15.91-16.41,15.91-28.39v-32.9c0-.24-.19-.43-.43-.43h-129.95ZM639.32,407.44h77.05c15.21,0,27.54-12.33,27.54-27.54v-18.5c0-.08-.07-.15-.15-.15h-131.81c-.08,0-.15.07-.15.15v18.5c0,15.2,12.33,27.53,27.53,27.53ZM583.59,250.67c-21.66,10.35-45.93,16.14-71.58,16.14s-49.93-5.79-71.59-16.14c-1.4-.67-2.6,1.16-1.42,2.17,40.37,34.35,67.3,83.07,72.2,137.88.1,1.09,1.52,1.09,1.61,0,4.9-54.8,31.83-103.52,72.2-137.88,1.18-1.01-.02-2.84-1.42-2.17Z"/>
</svg>